<svg width="32" height="32" viewBox="0 0 32 32" fill="none" xmlns="http://www.w3.org/2000/svg">
<path d="M10.1561 7.42487L12.2313 9.08501C13.3139 9.95111 13.8094 11.3577 13.5086 12.7111C13.199 14.1046 13.7338 15.5503 14.8757 16.4068L16.8581 17.8936C18.1611 18.8708 19.9167 18.9907 21.3404 18.1998C22.6702 17.461 24.2985 17.5133 25.5781 18.3359L26.5322 18.9493C28.7317 20.3632 29.3858 23.2827 28 25.5C27.1667 26.8333 23.1 28.1 13.5 22.5C5.14148 17.6242 2.99924 12.6473 2.91498 10.0115C2.89353 9.34073 3.21346 8.72556 3.6255 8.1958C5.20664 6.16291 8.14504 5.81603 10.1561 7.42487Z" stroke="#2C2076" stroke-width="3"/>
</svg>
