<svg width="60" height="60" viewBox="0 0 60 60" fill="none" xmlns="http://www.w3.org/2000/svg">
<path d="M16.1457 11.6041L23.8165 17.7407C25.306 18.9323 25.9878 20.8676 25.574 22.7297L25.0748 24.9759C24.6488 26.8931 25.3846 28.8822 26.9558 30.0606L33.0311 34.6171C34.609 35.8005 36.7352 35.9457 38.4594 34.9879L41.4472 33.328C43.0576 32.4333 45.0295 32.4966 46.5792 33.4929L53.0349 37.6429C55.3368 39.1228 56.0215 42.1782 54.5711 44.4988L52.5 47.8125C50.9375 50.3125 43.3125 52.6875 25.3125 42.1875C8.73782 32.5189 5.19965 22.6383 5.47522 17.9624C5.51797 17.237 5.85613 16.5779 6.30222 16.0043L9.0755 12.4387C10.7873 10.2378 13.9685 9.86228 16.1457 11.6041Z" stroke="white" stroke-width="3"/>
</svg>
