<svg width="32" height="32" viewBox="0 0 32 32" fill="none" xmlns="http://www.w3.org/2000/svg">
<path d="M5.72812 10.8891L4.74655 9.75488L5.72812 10.8891ZM26.2719 10.8891L25.2903 12.0234L26.2719 10.8891ZM26.5 14.67V24H29.5V14.67H26.5ZM23 27.5H9V30.5H23V27.5ZM5.5 24V14.67H2.5V24H5.5ZM6.70968 12.0234L13.7097 5.96569L11.7466 3.69718L4.74655 9.75488L6.70968 12.0234ZM18.2903 5.96569L25.2903 12.0234L27.2534 9.75488L20.2534 3.69719L18.2903 5.96569ZM13.7097 5.96569C15.0246 4.82781 16.9754 4.82781 18.2903 5.96569L20.2534 3.69719C17.8115 1.58398 14.1885 1.58398 11.7466 3.69718L13.7097 5.96569ZM5.5 14.67C5.5 13.654 5.94145 12.6882 6.70968 12.0234L4.74655 9.75488C3.31983 10.9895 2.5 12.7832 2.5 14.67H5.5ZM9 27.5C7.067 27.5 5.5 25.933 5.5 24H2.5C2.5 27.5899 5.41015 30.5 9 30.5V27.5ZM26.5 24C26.5 25.933 24.933 27.5 23 27.5V30.5C26.5899 30.5 29.5 27.5899 29.5 24H26.5ZM29.5 14.67C29.5 12.7832 28.6802 10.9895 27.2534 9.75488L25.2903 12.0234C26.0586 12.6882 26.5 13.654 26.5 14.67H29.5Z" fill="#2C2076"/>
</svg>
