<svg width="32" height="32" viewBox="0 0 32 32" fill="none" xmlns="http://www.w3.org/2000/svg">
<path d="M16 7.67741C11.4839 7.67741 7.74194 11.3548 7.74194 15.9355C7.74194 20.5161 11.4194 24.1935 16 24.1935C20.5807 24.1935 24.2581 20.4516 24.2581 15.9355C24.2581 11.4193 20.5161 7.67741 16 7.67741ZM16 21.2258C13.0968 21.2258 10.7097 18.8387 10.7097 15.9355C10.7097 13.0323 13.0968 10.6452 16 10.6452C18.9032 10.6452 21.2903 13.0323 21.2903 15.9355C21.2903 18.8387 18.9032 21.2258 16 21.2258Z" fill="#484FFD"/>
<path d="M24.5807 9.35485C25.614 9.35485 26.4517 8.51719 26.4517 7.48388C26.4517 6.45058 25.614 5.61292 24.5807 5.61292C23.5474 5.61292 22.7097 6.45058 22.7097 7.48388C22.7097 8.51719 23.5474 9.35485 24.5807 9.35485Z" fill="#484FFD"/>
<path d="M29.4194 2.64516C27.7419 0.903225 25.3548 0 22.6452 0H9.35484C3.74194 0 0 3.74194 0 9.35484V22.5806C0 25.3548 0.903226 27.7419 2.70968 29.4839C4.45161 31.1613 6.77419 32 9.41936 32H22.5806C25.3548 32 27.6774 31.0968 29.3548 29.4839C31.0968 27.8065 32 25.4194 32 22.6452V9.35484C32 6.64516 31.0968 4.32258 29.4194 2.64516ZM29.1613 22.6452C29.1613 24.6452 28.4516 26.2581 27.2903 27.3548C26.129 28.4516 24.5161 29.0323 22.5806 29.0323H9.41936C7.48387 29.0323 5.87097 28.4516 4.70968 27.3548C3.54839 26.1935 2.96774 24.5806 2.96774 22.5806V9.35484C2.96774 7.41935 3.54839 5.80645 4.70968 4.64516C5.80645 3.54839 7.48387 2.96774 9.41936 2.96774H22.7097C24.6452 2.96774 26.2581 3.54839 27.4194 4.70968C28.5161 5.87097 29.1613 7.48387 29.1613 9.35484V22.6452Z" fill="#484FFD"/>
</svg>
